<svg width="56" height="56" xmlns="http://www.w3.org/2000/svg"><g transform="translate(5 5)" fill="none" fill-rule="evenodd"><path d="M34 34h10a2 2 0 012 2v8a2 2 0 01-2 2H34a2 2 0 01-2-2v-8a2 2 0 012-2z" stroke="#2088FF" stroke-width="2"/><path d="M11 34H2.008A1.998 1.998 0 01.01 32l.002-2M0 31.013V1.9C0 .85.964 0 2.154 0h30.692C34.036 0 35 .85 35 1.9V5" stroke="#2088FF" stroke-width="2" stroke-linecap="round"/><path stroke="#2088FF" stroke-width="2" stroke-linecap="round" stroke-linejoin="round" d="M11 5l-6 .036"/><path stroke="#79B8FF" stroke-width="2" stroke-linecap="round" stroke-linejoin="round" d="M25 5H15"/><path stroke="#2088FF" stroke-width="2" stroke-linecap="round" stroke-linejoin="round" d="M30 5.05h-1M11 14.036h-1"/><path stroke="#79B8FF" stroke-width="2" stroke-linecap="round" stroke-linejoin="round" d="M7 14.036H5"/><path stroke="#2088FF" stroke-width="2" stroke-linecap="round" stroke-linejoin="round" d="M11 19.036H5M11 29.036L8 29"/><path stroke="#79B8FF" stroke-width="2" stroke-linecap="round" stroke-linejoin="round" d="M11 9.036H8"/><path stroke="#2088FF" stroke-width="2" stroke-linecap="round" stroke-linejoin="round" d="M11 24.036H9"/><path stroke="#79B8FF" stroke-width="2" stroke-linecap="round" stroke-linejoin="round" d="M11 24.036H9"/><path stroke="#2088FF" stroke-width="2" stroke-linecap="round" stroke-linejoin="round" d="M6 24.036H5"/><path d="M28 37H17.008a1.998 1.998 0 01-1.999-2l.002-2M15 34.013V10.9c0-1.05.964-1.9 2.154-1.9h22.692C41.036 9 42 9.85 42 10.9V23" stroke="#79B8FF" stroke-width="2" stroke-linecap="round"/><path d="M35 33v-2.25c0-2.246 1.592-3.75 4-3.75s4 1.506 4 3.75V33" stroke="#2088FF" stroke-width="2" stroke-linejoin="round"/><path d="M39 37a2 2 0 110 4 2 2 0 010-4" fill="#2088FF"/><path stroke="#2088FF" stroke-width="2" stroke-linecap="round" stroke-linejoin="round" d="M39 42v-2"/><path stroke="#79B8FF" stroke-width="2" stroke-linecap="round" stroke-linejoin="round" d="M15 14h27"/><path stroke="#2088FF" stroke-width="2" stroke-linecap="round" stroke-linejoin="round" d="M20 25h13M20 29h8"/><circle stroke="#2088FF" stroke-width="2" cx="21.5" cy="19.5" r="1.5"/></g></svg>